<svg id="github-logo" xmlns="http://www.w3.org/2000/svg" viewBox="0 0 24 24" width="48" height="48">
  <path d="M12 2C6.48 2 2 6.48 2 12c0 4.42 2.87 8.167 6.84 9.49.5.092.68-.217.68-.48 0-.237-.008-.867-.013-1.7-2.782.603-3.369-1.342-3.369-1.342-.454-1.154-1.11-1.462-1.11-1.462-.908-.62.069-.608.069-.608 1.003.07 1.532 1.034 1.532 1.034.892 1.53 2.341 1.088 2.91.832.092-.647.349-1.088.636-1.34-2.22-.252-4.555-1.11-4.555-4.934 0-1.09.39-1.982 1.029-2.68-.103-.253-.446-1.268.098-2.646 0 0 .84-.27 2.75 1.027A9.564 9.564 0 0 1 12 6.8c.85.004 1.705.114 2.505.336 1.91-1.296 2.75-1.026 2.75-1.026.545 1.378.202 2.393.1 2.646.64.698 1.028 1.59 1.028 2.68 0 3.832-2.338 4.678-4.566 4.926.36.31.68.92.68 1.852 0 1.336-.013 2.416-.013 2.742 0 .267.18.577.688.48A10.005 10.005 0 0 0 22 12c0-5.52-4.48-10-10-10z"/>
</svg>